<mxfile host="app.diagrams.net" modified="2024-03-21T07:45:55.582Z" agent="Mozilla/5.0 (Windows NT 10.0; Win64; x64) AppleWebKit/537.36 (KHTML, like Gecko) Chrome/122.0.0.0 Safari/537.36" version="24.0.7" etag="wGmY_Q-q637UXQfqvTNQ" type="github">
  <diagram name="Page-1" id="aDNjYjlbhNRxsRvvHolA">
    <mxGraphModel>
      <root>
        <mxCell id="0" />
        <mxCell id="1" parent="0" />
      </root>
    </mxGraphModel>
  </diagram>
</mxfile>
